
      <svg data-logo="logo" xmlns="http://www.w3.org/2000/svg" viewBox="0 0 51 41">
        <g id="logogram" transform="translate(0, 0) rotate(0) "><path d="M50.3442 20.9001C50.3442 15.5958 48.237 10.5086 44.4863 6.7579C40.7356 3.00717 35.6485 0.900025 30.3442 0.900024C25.0398 0.900024 19.9528 3.00717 16.202 6.7579C12.4513 10.5086 10.3441 15.5958 10.3441 20.9001H16.5942C18.6653 20.9001 20.2805 19.1645 21.0391 17.2373C21.5371 15.972 22.2929 14.8092 23.273 13.829C25.1484 11.9536 27.692 10.9 30.3442 10.9C32.9963 10.9 35.5399 11.9536 37.4153 13.829C39.2907 15.7043 40.3441 18.2479 40.3441 20.9001H50.3442Z" fill="url(#paint0_linear_7048_19107)"/><path d="M38.8229 28.5537C39.828 26.1272 40.3454 23.5265 40.3454 20.9001H50.3444C50.3444 31.9458 41.39 40.9 30.3443 40.9C28.6145 40.9 26.9358 40.6805 25.3351 40.2676C26.2408 40.0343 27.131 39.7371 27.999 39.3777C30.4255 38.3725 32.6303 36.8994 34.4875 35.0422C36.3447 33.185 37.8179 30.9802 38.8229 28.5537Z" fill="#3584E4"/><path d="M0.345215 20.8999C0.345214 23.5264 0.862531 26.1272 1.86762 28.5537C2.87273 30.9802 4.34591 33.185 6.20309 35.0422C8.06026 36.8993 10.2651 38.3725 12.6916 39.3776C15.1181 40.3827 17.7188 40.9 20.3453 40.9C22.9717 40.9 25.5724 40.3827 27.9989 39.3776C30.4254 38.3725 32.6302 36.8993 34.4874 35.0422C36.3446 33.185 37.8177 30.9802 38.8228 28.5537C39.828 26.1272 40.3453 23.5264 40.3453 20.8999H34.0952C32.0241 20.8999 30.4089 22.6355 29.6503 24.5626C29.6288 24.6175 29.6066 24.6722 29.5841 24.7269C29.0815 25.9401 28.3449 27.0425 27.4163 27.9711C26.4878 28.8996 25.3853 29.6363 24.1721 30.1388C22.9589 30.6414 21.6585 30.9 20.3453 30.9C19.032 30.9 17.7317 30.6414 16.5185 30.1388C15.3051 29.6363 14.2028 28.8996 13.2741 27.9711C12.3456 27.0425 11.609 25.9401 11.1064 24.7269C10.6039 23.5135 10.3452 22.2132 10.3452 20.8999H0.345215Z" fill="url(#paint1_linear_7048_19107)"/><path d="M0.347046 20.9001C0.347046 9.85432 9.30134 0.900024 20.347 0.900024C22.0764 0.900024 23.7545 1.11952 25.3552 1.53218C21.9207 2.41694 18.7524 4.20745 16.2019 6.75792C12.4511 10.5086 10.344 15.5958 10.344 20.9001H0.347046Z" fill="#62A0EA"/></g>
        <g id="logotype" transform="translate(51, 20.5)"></g>
        <defs xmlns="http://www.w3.org/2000/svg">
<linearGradient id="paint0_linear_7048_19107" x1="50.3442" y1="10.9" x2="10.3441" y2="10.9" gradientUnits="userSpaceOnUse">
<stop stop-color="#3584E4"/>
<stop offset="1" stop-color="#4F46E5"/>
</linearGradient>
<linearGradient id="paint1_linear_7048_19107" x1="0.345216" y1="30.9" x2="40.3453" y2="30.9" gradientUnits="userSpaceOnUse">
<stop stop-color="#62A0EA"/>
<stop offset="1" stop-color="#4F46E5"/>
</linearGradient>
</defs>
      </svg>
    